<?xml version="1.0" standalone="no"?>
<svg xmlns:xlink="http://www.w3.org/1999/xlink" id="wave" style="transform:rotate(0deg); transition: 0.3s" viewBox="0 0 1440 100" version="1.1" xmlns="http://www.w3.org/2000/svg"><defs><linearGradient id="sw-gradient-0" x1="0" x2="0" y1="1" y2="0"><stop stop-color="rgba(190, 173, 250, 1)" offset="0%"/><stop stop-color="rgba(190, 173, 250, 1)" offset="100%"/></linearGradient></defs><path style="transform:translate(0, 0px); opacity:1" fill="url(#sw-gradient-0)" d="M0,20L10,18.3C20,17,40,13,60,25C80,37,100,63,120,73.3C140,83,160,77,180,63.3C200,50,220,30,240,20C260,10,280,10,300,15C320,20,340,30,360,36.7C380,43,400,47,420,46.7C440,47,460,43,480,35C500,27,520,13,540,21.7C560,30,580,60,600,73.3C620,87,640,83,660,78.3C680,73,700,67,720,55C740,43,760,27,780,23.3C800,20,820,30,840,31.7C860,33,880,27,900,20C920,13,940,7,960,13.3C980,20,1000,40,1020,45C1040,50,1060,40,1080,41.7C1100,43,1120,57,1140,58.3C1160,60,1180,50,1200,43.3C1220,37,1240,33,1260,38.3C1280,43,1300,57,1320,51.7C1340,47,1360,23,1380,11.7C1400,0,1420,0,1430,0L1440,0L1440,100L1430,100C1420,100,1400,100,1380,100C1360,100,1340,100,1320,100C1300,100,1280,100,1260,100C1240,100,1220,100,1200,100C1180,100,1160,100,1140,100C1120,100,1100,100,1080,100C1060,100,1040,100,1020,100C1000,100,980,100,960,100C940,100,920,100,900,100C880,100,860,100,840,100C820,100,800,100,780,100C760,100,740,100,720,100C700,100,680,100,660,100C640,100,620,100,600,100C580,100,560,100,540,100C520,100,500,100,480,100C460,100,440,100,420,100C400,100,380,100,360,100C340,100,320,100,300,100C280,100,260,100,240,100C220,100,200,100,180,100C160,100,140,100,120,100C100,100,80,100,60,100C40,100,20,100,10,100L0,100Z"/></svg>